<?xml version="1.0" encoding="UTF-8"?>
<svg enable-background="new 0 0 100.354 100.352" version="1.1" viewBox="0 0 100.35 100.35" xml:space="preserve"
  xmlns="http://www.w3.org/2000/svg">
  <path
    d="m93.09 76.224c0.047-0.145 0.079-0.298 0.079-0.459v-53.127c0-0.162-0.032-0.316-0.08-0.462-7e-3 -0.02-0.011-0.04-0.019-0.06-0.064-0.171-0.158-0.325-0.276-0.46-8e-3 -9e-3 -9e-3 -0.02-0.017-0.029-5e-3 -5e-3 -0.011-7e-3 -0.016-0.012-0.126-0.134-0.275-0.242-0.442-0.323-0.013-6e-3 -0.023-0.014-0.036-0.02-0.158-0.071-0.33-0.111-0.511-0.123-0.018-1e-3 -0.035-5e-3 -0.053-5e-3 -0.017-1e-3 -0.032-5e-3 -0.049-5e-3h-83.205c-0.017 0-0.033 4e-3 -0.05 5e-3 -0.016 1e-3 -0.032 4e-3 -0.048 5e-3 -0.183 0.012-0.358 0.053-0.518 0.125-0.01 4e-3 -0.018 0.011-0.028 0.015-0.17 0.081-0.321 0.191-0.448 0.327-5e-3 5e-3 -0.011 6e-3 -0.016 0.011-8e-3 8e-3 -9e-3 0.019-0.017 0.028-0.118 0.135-0.213 0.29-0.277 0.461-8e-3 0.02-0.012 0.04-0.019 0.061-0.048 0.146-0.08 0.3-0.08 0.462v53.128c0 0.164 0.033 0.32 0.082 0.468 7e-3 0.02 0.011 0.039 0.018 0.059 0.065 0.172 0.161 0.327 0.28 0.462 7e-3 8e-3 9e-3 0.018 0.016 0.026 6e-3 7e-3 0.014 0.011 0.021 0.018 0.049 0.051 0.103 0.096 0.159 0.14 0.025 0.019 0.047 0.042 0.073 0.06 0.066 0.046 0.137 0.083 0.21 0.117 0.018 8e-3 0.034 0.021 0.052 0.028 0.181 0.077 0.38 0.121 0.589 0.121h83.204c0.209 0 0.408-0.043 0.589-0.121 0.028-0.012 0.054-0.03 0.081-0.044 0.062-0.031 0.124-0.063 0.181-0.102 0.03-0.021 0.057-0.048 0.086-0.071 0.051-0.041 0.101-0.082 0.145-0.129 8e-3 -8e-3 0.017-0.014 0.025-0.022 8e-3 -9e-3 0.01-0.021 0.018-0.03 0.117-0.134 0.211-0.288 0.275-0.458 0.01-0.022 0.015-0.043 0.022-0.065zm-83.125-50.184 25.247 23.061-25.247 23.245v-46.306zm51.746 21.931c-0.104 0.068-0.214 0.125-0.301 0.221-0.033 0.036-0.044 0.083-0.073 0.121l-11.27 10.294-37.736-34.469h75.472l-26.092 23.833zm-24.275 3.161 11.619 10.613c0.287 0.262 0.649 0.393 1.012 0.393s0.725-0.131 1.011-0.393l11.475-10.481 25.243 23.002h-75.487l25.127-23.134zm27.342-1.9 25.391-23.192v46.33l-25.391-23.138z" />
</svg>