<?xml version="1.0" encoding="UTF-8"?>
<svg enable-background="new 0 0 512 512" version="1.1" viewBox="0 0 512 512" xml:space="preserve"
  xmlns="http://www.w3.org/2000/svg">
  <linearGradient id="c" x1="-46.004" x2="-32.933" y1="634.12" y2="647.19"
    gradientTransform="matrix(32 0 0 -32 1519 20757)" gradientUnits="userSpaceOnUse">
    <stop stop-color="#FFC107" offset="0" />
    <stop stop-color="#F44336" offset=".507" />
    <stop stop-color="#9C27B0" offset=".99" />
  </linearGradient>
  <path
    d="M352,0H160C71.648,0,0,71.648,0,160v192c0,88.352,71.648,160,160,160h192  c88.352,0,160-71.648,160-160V160C512,71.648,440.352,0,352,0z M464,352c0,61.76-50.24,112-112,112H160c-61.76,0-112-50.24-112-112  V160C48,98.24,98.24,48,160,48h192c61.76,0,112,50.24,112,112V352z"
    fill="url(#c)" />
  <linearGradient id="b" x1="-42.297" x2="-36.64" y1="637.83" y2="643.48"
    gradientTransform="matrix(32 0 0 -32 1519 20757)" gradientUnits="userSpaceOnUse">
    <stop stop-color="#FFC107" offset="0" />
    <stop stop-color="#F44336" offset=".507" />
    <stop stop-color="#9C27B0" offset=".99" />
  </linearGradient>
  <path
    d="m256 128c-70.688 0-128 57.312-128 128s57.312 128 128 128 128-57.312 128-128-57.312-128-128-128zm0 208c-44.096 0-80-35.904-80-80 0-44.128 35.904-80 80-80s80 35.872 80 80c0 44.096-35.904 80-80 80z"
    fill="url(#b)" />
  <linearGradient id="a" x1="-35.546" x2="-34.792" y1="644.58" y2="645.33"
    gradientTransform="matrix(32 0 0 -32 1519 20757)" gradientUnits="userSpaceOnUse">
    <stop stop-color="#FFC107" offset="0" />
    <stop stop-color="#F44336" offset=".507" />
    <stop stop-color="#9C27B0" offset=".99" />
  </linearGradient>
  <circle cx="393.6" cy="118.4" r="17.056" fill="url(#a)" />
</svg>