<?xml version="1.0" encoding="UTF-8"?>
<svg version="1.1" viewBox="0 0 38 48" xmlns="http://www.w3.org/2000/svg">
  <title>stackoverflow</title>
  <desc>Created with Sketch.</desc>
  <g fill="none" fill-rule="evenodd">
    <g transform="translate(-505 -1175)">
      <g transform="translate(505 1175)">
        <path
          d="m25.086 41.592-19.111 0.0088572-0.0016454-4.0473 19.111-0.0097895 0.0024681 4.0482zm12.914-22.921-3.2693-18.671-4.022 0.69203 3.2688 18.671 4.0224-0.69203zm-12.454 13.684-19.03-1.7387-0.37468 4.0311 19.03 1.7371 0.37433-4.0294zm1.2554-5.2816-18.455-4.9192-1.0603 3.9082 18.456 4.9198 1.0591-3.9088zm2.4093-4.6295-16.461-9.6272-2.0746 3.4851 16.462 9.6278 2.0738-3.4857zm4.0363-2.8348-10.767-15.657-3.3726 2.2801 10.768 15.656 3.3721-2.2794z"
          fill="#FF810F" />
        <polygon points="28.332 28.278 28.332 44.824 3.2648 44.824 3.2648 28.278 0 28.278 0 48 31.58 48 31.58 28.278"
          fill="#BEBCBC" />
      </g>
    </g>
  </g>
</svg>